<svg width="40" height="40" viewBox="0 0 40 40" fill="none" xmlns="http://www.w3.org/2000/svg">
<rect width="40" height="40" rx="12" fill="#E3EFFF"/>
<path d="M12.0001 22L20.0001 19L28.0001 22M20.0001 11C22.3359 13.0666 25.3846 14.1426 28.5001 14C28.9537 15.543 29.0925 17.1615 28.9082 18.7592C28.7239 20.3569 28.2204 21.9013 27.4275 23.3005C26.6346 24.6998 25.5685 25.9254 24.2925 26.9045C23.0166 27.8836 21.5569 28.5962 20.0001 29C18.4433 28.5962 16.9836 27.8836 15.7076 26.9045C14.4317 25.9254 13.3656 24.6998 12.5727 23.3005C11.7798 21.9013 11.2762 20.3569 11.092 18.7592C10.9077 17.1615 11.0465 15.543 11.5001 14C14.6156 14.1426 17.6642 13.0666 20.0001 11Z" stroke="#0254BF" stroke-width="2" stroke-linecap="round" stroke-linejoin="round"/>
</svg>
