<svg width="97" height="73" viewBox="0 0 97 73" fill="none" xmlns="http://www.w3.org/2000/svg">
<path d="M93.062 0.686523H36.2366C35.1582 0.7273 32.8268 0.831089 32.1283 0.920032C14.3598 2.95952 0.558594 18.1086 0.558594 36.494C0.558594 54.8771 14.3563 70.0246 32.1214 72.0672C33.4739 72.2236 34.8413 72.3013 36.2111 72.3015H36.2237C36.4307 72.3015 36.635 72.2998 36.8366 72.2962C43.818 72.1771 50.813 70.048 56.173 66.0396C57.2581 65.228 57.4835 63.6856 56.6763 62.5946L52.4098 57.6888C52.4651 57.6487 52.5202 57.6084 52.5752 57.568C68.2976 63.0612 86.0843 56.3577 94.1156 41.1117C94.8868 39.6478 94.3316 37.8326 92.8756 37.0572L81.7027 27.8977C90.1039 21.6105 96.0453 15.0251 96.0453 3.68596C96.0453 2.02942 94.7097 0.686523 93.062 0.686523Z" fill="url(#paint0_radial_209_869)"/>
<defs>
<radialGradient id="paint0_radial_209_869" cx="0" cy="0" r="1" gradientUnits="userSpaceOnUse" gradientTransform="translate(17.232 23.34) rotate(58.6323) scale(73.659 98.9906)">
<stop stop-color="#042F68"/>
<stop offset="0.950977" stop-color="#0254BF"/>
</radialGradient>
</defs>
</svg>
